<?xml version="1.0" standalone="no"?>
<!DOCTYPE svg PUBLIC "-//W3C//DTD SVG 20010904//EN"
 "http://www.w3.org/TR/2001/REC-SVG-20010904/DTD/svg10.dtd">
<svg version="1.0" xmlns="http://www.w3.org/2000/svg"
 width="240.000000pt" height="240.000000pt" viewBox="0 0 240.000000 240.000000"
 preserveAspectRatio="xMidYMid meet">
<metadata>
Created by potrace 1.16, written by Peter Selinger 2001-2019
</metadata>
<g transform="translate(0.000000,240.000000) scale(0.100000,-0.100000)"
fill="#000000" stroke="none">
<path d="M0 1200 l0 -1200 1200 0 1200 0 0 1200 0 1200 -1200 0 -1200 0 0
-1200z m1419 920 c427 -109 710 -470 709 -903 0 -134 -16 -227 -59 -339 -88
-228 -250 -402 -472 -509 -85 -40 -130 -51 -147 -33 -5 5 -10 90 -12 189 -3
174 -4 182 -30 228 l-27 47 33 0 c47 0 133 27 193 61 137 78 202 224 191 428
-5 87 -22 135 -70 203 -11 17 -17 36 -13 47 12 40 8 156 -8 194 -13 29 -21 37
-42 37 -36 0 -127 -34 -183 -67 -46 -28 -48 -29 -102 -16 -52 12 -269 18 -317
9 -94 -19 -108 -18 -159 11 -71 42 -136 65 -175 61 -29 -3 -35 -8 -45 -43 -15
-49 -17 -139 -5 -182 7 -25 6 -35 -9 -48 -10 -9 -31 -44 -46 -78 -26 -57 -29
-72 -28 -173 0 -89 5 -123 23 -175 31 -87 80 -152 144 -193 56 -36 162 -74
215 -78 35 -2 40 -9 18 -27 -8 -7 -20 -31 -27 -55 -10 -36 -18 -46 -46 -54
-44 -13 -112 -8 -151 12 -17 9 -50 41 -71 70 -55 74 -94 100 -150 100 -61 1
-61 -20 -2 -65 29 -22 55 -55 75 -96 61 -121 120 -157 254 -156 l82 2 0 -89
c0 -102 -9 -116 -68 -107 -89 15 -292 144 -382 244 -64 71 -147 203 -176 280
-58 153 -69 214 -68 373 3 447 331 830 774 905 104 17 280 11 379 -15z"/>
</g>
</svg>
